<svg width="300" height="353" viewBox="0 0 300 353" fill="none" xmlns="http://www.w3.org/2000/svg">
<path d="M149.722 -151.987H178.406C179.539 -150.633 181.141 -151.137 182.553 -150.987C198.499 -149.286 214.184 -146.432 228.969 -139.951C247.263 -131.934 264.004 -121.996 274.9 -104.241C290.633 -78.5964 286.69 -53.4358 271.3 -30.6416C263.126 -18.5338 253.631 -7.30798 244.477 4.11472C232.451 19.1245 231.546 32.7206 241.565 49.0849C253.823 69.111 266.133 89.0623 275.042 110.986C283.357 131.453 290.739 152.129 295.163 173.786C296.693 181.275 297.783 188.85 299.074 196.387V237.955C296.607 246.755 295.847 255.91 293.25 264.714C287.001 285.902 277.879 305.377 260.793 320.091C236.957 340.621 208.112 342.905 181.813 325.974C169.642 318.138 158.238 309.07 147.424 299.459C131.392 285.213 114.297 282.52 98.9148 293.407C89.3326 300.187 79.2468 306.125 69.0153 311.708C31.9852 331.916 -7.05579 346.394 -49.2449 351.327C-85.0551 355.517 -118.976 349.532 -150.182 331.278C-163.428 323.529 -175.1 313.705 -181.994 299.124C-193.383 275.03 -191.655 252.209 -176.044 230.741C-166.757 217.972 -156.723 205.75 -147.062 193.253C-137.118 180.393 -136.173 165.918 -144.528 152.834C-148.683 146.329 -152.933 139.919 -156.762 133.182C-166.112 116.731 -175.289 100.32 -182.132 82.5418C-192.525 55.5503 -200.813 28.1886 -203.725 -0.728424C-206.818 -31.4252 -202.406 -60.7714 -189.637 -88.8536C-181.625 -106.474 -169.689 -120.543 -152.394 -129.642C-127.968 -142.498 -101.422 -139.439 -79.8095 -121.818C-68.4565 -112.561 -56.7808 -103.698 -45.1012 -94.8465C-32.6423 -85.4044 -19.4516 -84.5342 -5.83194 -92.3068C2.89236 -97.2877 11.6324 -102.249 20.2229 -107.454C55.1241 -128.595 92.2644 -143.581 132.903 -149.278C138.515 -150.066 144.37 -149.558 149.726 -151.984L149.722 -151.987ZM266.684 -69.3945C266.503 -91.4406 251.671 -110.797 229.929 -117.373C217.71 -121.07 206.172 -119.747 195.378 -112.774C185.123 -106.151 175.675 -98.4611 166.073 -90.9562C150.891 -79.0847 136.047 -66.8115 121.286 -54.4241C111.956 -46.5924 102.449 -38.804 91.6701 -33.0592C74.0681 -23.6801 55.0375 -21.6129 35.456 -23.873C13.356 -26.4245 -5.21805 -36.8314 -21.7891 -50.9355C-44.625 -70.367 -68.2794 -88.763 -91.7685 -107.368C-97.9979 -112.301 -104.554 -116.704 -112.55 -118.345C-133.788 -122.708 -157.478 -109.935 -166.698 -89.1607C-170.976 -79.5296 -172.086 -69.7134 -169.559 -59.3263C-166.919 -48.4706 -159.942 -40.2688 -153.374 -31.9449C-136.547 -10.6312 -119.504 10.5249 -102.071 31.3465C-88.5613 47.4823 -78.987 65.0672 -76.0278 86.2628C-73.4738 104.58 -76.075 122.007 -82.4382 139.045C-87.4988 152.598 -97.75 162.792 -106.396 173.896C-123.179 195.446 -140.706 216.417 -157.978 237.585C-173.778 256.949 -175.198 277.428 -161.968 296.616C-149.494 314.713 -129.405 322.666 -110.055 317.083C-102.96 315.035 -97.0456 310.807 -91.2845 306.365C-67.4137 287.961 -43.9245 269.077 -20.8643 249.669C-4.3405 235.758 14.1745 226.225 35.7905 223.666C58.3864 220.988 79.7072 224.847 99.3988 236.797C109.201 242.743 117.363 250.634 126.134 257.839C146.617 274.672 167.415 291.127 188.153 307.649C193.186 311.657 198.522 315.209 204.858 317.008C223.782 322.375 243.911 314.878 256.999 297.494C269.702 280.622 269.981 260.556 257.656 243.393C253.725 237.916 249.743 232.458 245.512 227.213C228.465 206.073 211.237 185.074 194.217 163.91C182.372 149.184 173.77 132.997 171.755 113.747C169.933 96.3073 170.728 79.2737 177.312 62.7835C182.526 49.7228 191.108 38.8198 199.927 28.2122C217.824 6.69771 235.422 -15.053 252.816 -36.9731C260.379 -46.5058 267.061 -56.448 266.688 -69.3984L266.684 -69.3945Z" fill="#FFC30F"/>
</svg>
