<svg width="165" height="151" viewBox="0 0 165 151" fill="none" xmlns="http://www.w3.org/2000/svg">
<path d="M165 79.0391C165 84.3182 163.614 89.2139 160.843 93.6967C158.071 98.1795 154.365 101.689 149.692 104.137C149.821 104.933 149.886 106.172 149.886 107.853C149.886 115.845 146.953 122.629 141.152 128.232C135.319 133.865 128.294 136.667 120.076 136.667C116.402 136.667 112.89 136.047 109.57 134.809C106.992 139.646 103.286 143.538 98.4199 146.517C93.5859 149.525 88.2686 151 82.5 151C76.6025 151 71.2529 149.555 66.4834 146.606C61.6816 143.686 58.0078 139.763 55.4297 134.809C52.1104 136.047 48.6299 136.667 44.9238 136.667C36.7061 136.667 29.6484 133.865 23.751 128.232C17.8535 122.629 14.9209 115.816 14.9209 107.853C14.9209 106.968 15.0498 105.729 15.2754 104.137C10.6025 101.66 6.89648 98.1795 4.125 93.6967C1.38574 89.2139 0 84.3182 0 79.0391C0 73.4355 1.54688 68.2744 4.6084 63.6146C7.66992 58.9549 11.7949 55.5043 16.9512 53.2629C15.5977 49.9008 14.9209 46.5092 14.9209 43.1471C14.9209 35.1842 17.8535 28.3715 23.751 22.768C29.6484 17.1645 36.7061 14.3332 44.9238 14.3332C48.5977 14.3332 52.1104 14.9525 55.4297 16.1912C58.0078 11.3545 61.7139 7.46152 66.5801 4.48281C71.4141 1.5041 76.7314 0 82.5 0C88.2686 0 93.5859 1.5041 98.4199 4.45332C103.254 7.43203 106.992 11.325 109.57 16.1617C112.89 14.923 116.37 14.3037 120.076 14.3037C128.294 14.3037 135.319 17.1055 141.152 22.7385C146.985 28.3715 149.886 35.1547 149.886 43.1176C149.886 46.8336 149.273 50.1957 148.049 53.2334C153.205 55.4748 157.33 58.9254 160.392 63.5852C163.453 68.2744 165 73.4355 165 79.0391ZM78.9873 101.778L113.051 55.0914C113.921 53.8527 114.179 52.4961 113.889 51.051C113.566 49.6059 112.761 48.4557 111.407 47.6889C110.054 46.8926 108.571 46.6271 106.992 46.8336C105.381 47.0695 104.092 47.7773 103.125 49.016L73.1221 90.3051L59.2969 77.6824C58.0723 76.5617 56.6543 76.0309 55.0752 76.0898C53.4639 76.1488 52.0781 76.6797 50.8535 77.6824C49.7578 78.6852 49.21 79.9533 49.21 81.4869C49.21 82.991 49.7578 84.2592 50.8535 85.2914L69.835 102.662L70.7695 103.341C71.8652 104.019 72.9932 104.343 74.0889 104.343C76.248 104.314 77.8916 103.488 78.9873 101.778Z" fill="#FFC746"/>
</svg>
