<svg width="32" height="32" viewBox="0 0 32 32" fill="none" xmlns="http://www.w3.org/2000/svg">
<path d="M30.5452 18.909L26.2703 15.8311C24.0489 14.2317 21.0131 14.397 18.9785 16.2281L13.021 21.5899C10.9864 23.421 7.95057 23.5863 5.7292 21.987L1.45428 18.909M7.27247 30.5454H24.727C27.9403 30.5454 30.5452 27.9405 30.5452 24.7272V7.27265C30.5452 4.05936 27.9403 1.45447 24.727 1.45447H7.27247C4.05917 1.45447 1.45428 4.05936 1.45428 7.27265V24.7272C1.45428 27.9405 4.05917 30.5454 7.27247 30.5454ZM14.5452 10.909C14.5452 12.9173 12.9171 14.5454 10.9088 14.5454C8.90052 14.5454 7.27247 12.9173 7.27247 10.909C7.27247 8.9007 8.90052 7.27265 10.9088 7.27265C12.9171 7.27265 14.5452 8.9007 14.5452 10.909Z" stroke="white" stroke-width="1.5" stroke-linecap="round"/>
</svg>
