<svg width="26" height="12" viewBox="0 0 26 12" fill="none" xmlns="http://www.w3.org/2000/svg">
<path d="M4.625 11.1777C3.72721 11.1777 2.98665 11.0911 2.40332 10.918C1.82454 10.7402 1.37109 10.4941 1.04297 10.1797C0.719401 9.86523 0.491536 9.49609 0.359375 9.07227C0.227214 8.64844 0.161133 8.18815 0.161133 7.69141V4.32129C0.161133 3.81087 0.224935 3.33919 0.352539 2.90625C0.484701 2.46875 0.712565 2.08822 1.03613 1.76465C1.36426 1.44108 1.81771 1.19043 2.39648 1.0127C2.97982 0.830404 3.72266 0.739258 4.625 0.739258C5.5 0.739258 6.20866 0.823568 6.75098 0.992188C7.29785 1.16081 7.71484 1.39779 8.00195 1.70312C8.29362 2.00846 8.49186 2.36621 8.59668 2.77637C8.70605 3.18652 8.76074 3.63314 8.76074 4.11621V4.27344L6.76465 4.42383V4.02051C6.76465 3.34147 6.59831 2.8903 6.26562 2.66699C5.93294 2.44368 5.38607 2.33203 4.625 2.33203C3.87305 2.33203 3.2806 2.45052 2.84766 2.6875C2.41471 2.92448 2.19824 3.38932 2.19824 4.08203V7.89648C2.19824 8.35677 2.29395 8.70996 2.48535 8.95605C2.68132 9.19759 2.95931 9.36393 3.31934 9.45508C3.68392 9.54167 4.11914 9.58496 4.625 9.58496C5.13997 9.58496 5.56836 9.54167 5.91016 9.45508C6.25195 9.36393 6.50716 9.19759 6.67578 8.95605C6.84896 8.70996 6.93555 8.35677 6.93555 7.89648V7.1582H4.89844V5.8252H8.76758V11H7.69434L7.37305 9.83789C7.3457 9.91992 7.28874 10.0339 7.20215 10.1797C7.11556 10.3255 6.97428 10.4759 6.77832 10.6309C6.58236 10.7812 6.3112 10.9089 5.96484 11.0137C5.61849 11.123 5.17188 11.1777 4.625 11.1777ZM11.1396 9.48242H12.9785V2.4209H11.1396V0.910156H16.8271V2.4209H15.002V9.48242H16.8271V11H11.1396V9.48242ZM19.2061 0.910156H25.3105V2.46191H21.2363V5.20996H25.0303V6.66602H21.2363V11H19.2061V0.910156Z" fill="white"/>
</svg>
