<svg width="31" height="28" viewBox="0 0 31 28" fill="none" xmlns="http://www.w3.org/2000/svg">
<path d="M8.33021 5.78124V6.53124C8.58098 6.53124 8.81515 6.40592 8.95425 6.19727L8.33021 5.78124ZM10.2999 2.82666L9.67589 2.41064V2.41064L10.2999 2.82666ZM20.3672 2.82666L20.9913 2.41064L20.3672 2.82666ZM22.3369 5.78124L21.7129 6.19727C21.852 6.40592 22.0862 6.53124 22.3369 6.53124V5.78124ZM18.7856 16.2863C18.7856 18.1928 17.2401 19.7383 15.3336 19.7383V21.2383C18.0685 21.2383 20.2856 19.0212 20.2856 16.2863H18.7856ZM15.3336 19.7383C13.4271 19.7383 11.8816 18.1928 11.8816 16.2863H10.3816C10.3816 19.0212 12.5987 21.2383 15.3336 21.2383V19.7383ZM11.8816 16.2863C11.8816 14.3798 13.4271 12.8343 15.3336 12.8343V11.3343C12.5987 11.3343 10.3816 13.5514 10.3816 16.2863H11.8816ZM15.3336 12.8343C17.2401 12.8343 18.7856 14.3798 18.7856 16.2863H20.2856C20.2856 13.5514 18.0685 11.3343 15.3336 11.3343V12.8343ZM8.95425 6.19727L10.924 3.24269L9.67589 2.41064L7.70617 5.36522L8.95425 6.19727ZM12.6308 2.32922H18.0364V0.829224H12.6308V2.32922ZM19.7432 3.24269L21.7129 6.19727L22.961 5.36522L20.9913 2.41064L19.7432 3.24269ZM18.0364 2.32922C18.7222 2.32922 19.3627 2.67201 19.7432 3.24269L20.9913 2.41064C20.3326 1.42266 19.2238 0.829224 18.0364 0.829224V2.32922ZM10.924 3.24269C11.3044 2.67201 11.9449 2.32922 12.6308 2.32922V0.829224C11.4434 0.829224 10.3345 1.42266 9.67589 2.41064L10.924 3.24269ZM28.5903 11.3839V21.1887H30.0903V11.3839H28.5903ZM23.7376 26.0413H6.92954V27.5413H23.7376V26.0413ZM2.07684 21.1887V11.3839H0.576843V21.1887H2.07684ZM6.92954 26.0413C4.24947 26.0413 2.07684 23.8687 2.07684 21.1887H0.576843C0.576843 24.6971 3.42104 27.5413 6.92954 27.5413V26.0413ZM28.5903 21.1887C28.5903 23.8687 26.4177 26.0413 23.7376 26.0413V27.5413C27.2461 27.5413 30.0903 24.6971 30.0903 21.1887H28.5903ZM23.7376 6.53124C26.4177 6.53124 28.5903 8.70387 28.5903 11.3839H30.0903C30.0903 7.87544 27.2461 5.03124 23.7376 5.03124V6.53124ZM6.92954 5.03124C3.42104 5.03124 0.576843 7.87544 0.576843 11.3839H2.07684C2.07684 8.70387 4.24947 6.53124 6.92954 6.53124V5.03124ZM6.92954 6.53124H8.33021V5.03124H6.92954V6.53124ZM23.7376 5.03124H22.3369V6.53124H23.7376V5.03124Z" fill="white"/>
</svg>
