<svg width="35" height="34" viewBox="0 0 35 34" fill="none" xmlns="http://www.w3.org/2000/svg">
<path d="M18.6602 3.17859V8.78128C18.6602 11.8756 21.1686 14.384 24.2629 14.384L29.8656 14.384M4.65344 8.78128L4.65344 25.5894C4.65344 28.6836 7.16185 31.1921 10.2561 31.1921H24.2629C27.3572 31.1921 29.8656 28.6836 29.8656 25.5894V16.7047C29.8656 15.2188 29.2753 13.7937 28.2246 12.743L20.3012 4.81958C19.2505 3.76887 17.8254 3.17859 16.3395 3.17859L10.2561 3.17859C7.16185 3.17859 4.65344 5.687 4.65344 8.78128Z" stroke="white" stroke-width="1.5" stroke-linejoin="round"/>
<path d="M8.71869 19.471H10.9387C11.4393 19.471 11.821 19.5093 12.0836 19.5859C12.4365 19.6899 12.7388 19.8745 12.9905 20.1399C13.2422 20.4052 13.4337 20.7308 13.565 21.1165C13.6963 21.4995 13.7619 21.9728 13.7619 22.5363C13.7619 23.0315 13.7004 23.4583 13.5773 23.8166C13.4268 24.2544 13.2121 24.6086 12.933 24.8795C12.7224 25.0846 12.4379 25.2447 12.0795 25.3596C11.8114 25.4444 11.453 25.4868 11.0044 25.4868H8.71869V19.471ZM9.93334 20.4887V24.4732H10.8402C11.1794 24.4732 11.4243 24.4541 11.5747 24.4158C11.7717 24.3665 11.9345 24.2831 12.0631 24.1654C12.1944 24.0478 12.3011 23.8549 12.3831 23.5868C12.4652 23.316 12.5063 22.9481 12.5063 22.483C12.5063 22.0179 12.4652 21.6609 12.3831 21.412C12.3011 21.163 12.1862 20.9688 12.0384 20.8293C11.8907 20.6897 11.7033 20.5954 11.4763 20.5461C11.3067 20.5078 10.9743 20.4887 10.4791 20.4887H9.93334Z" fill="white"/>
<path d="M14.5498 22.5158C14.5498 21.903 14.6415 21.3887 14.8247 20.9729C14.9615 20.6665 15.1476 20.3916 15.3828 20.1481C15.6208 19.9046 15.8807 19.724 16.1625 19.6064C16.5373 19.4477 16.9695 19.3684 17.4592 19.3684C18.3456 19.3684 19.0541 19.6433 19.5848 20.1932C20.1183 20.7431 20.385 21.5077 20.385 22.4871C20.385 23.4583 20.121 24.2188 19.5931 24.7687C19.0651 25.3158 18.3593 25.5894 17.4756 25.5894C16.5811 25.5894 15.8698 25.3172 15.3418 24.7728C14.8138 24.2256 14.5498 23.4733 14.5498 22.5158ZM15.8014 22.4748C15.8014 23.156 15.9587 23.673 16.2733 24.0259C16.5879 24.3761 16.9873 24.5512 17.4715 24.5512C17.9557 24.5512 18.3524 24.3775 18.6616 24.03C18.9734 23.6799 19.1294 23.156 19.1294 22.4584C19.1294 21.769 18.9775 21.2547 18.6739 20.9154C18.3729 20.5762 17.9722 20.4066 17.4715 20.4066C16.9709 20.4066 16.5674 20.579 16.261 20.9236C15.9546 21.2656 15.8014 21.7827 15.8014 22.4748Z" fill="white"/>
<path d="M25.1862 23.275L26.3639 23.6484C26.1833 24.305 25.8824 24.7933 25.4611 25.1134C25.0426 25.4307 24.5105 25.5894 23.8648 25.5894C23.066 25.5894 22.4094 25.3172 21.8951 24.7728C21.3808 24.2256 21.1237 23.4788 21.1237 22.5322C21.1237 21.531 21.3822 20.754 21.8992 20.2014C22.4163 19.6461 23.0961 19.3684 23.9387 19.3684C24.6746 19.3684 25.2723 19.5859 25.7319 20.0209C26.0055 20.278 26.2107 20.6473 26.3475 21.1288L25.1451 21.4161C25.074 21.1042 24.9249 20.858 24.6979 20.6774C24.4735 20.4969 24.2 20.4066 23.8771 20.4066C23.4312 20.4066 23.0688 20.5666 22.7897 20.8867C22.5134 21.2068 22.3753 21.7252 22.3753 22.442C22.3753 23.2025 22.512 23.7441 22.7856 24.067C23.0592 24.3898 23.4148 24.5512 23.8525 24.5512C24.1753 24.5512 24.453 24.4486 24.6855 24.2434C24.9181 24.0382 25.085 23.7154 25.1862 23.275Z" fill="white"/>
</svg>
