<svg width="4" height="17" viewBox="0 0 4 17" fill="none" xmlns="http://www.w3.org/2000/svg">
<path fill-rule="evenodd" clip-rule="evenodd" d="M2 4.26318C3.1 4.26318 4 3.36318 4 2.26318C4 1.16318 3.1 0.263184 2 0.263184C0.9 0.263184 0 1.16318 0 2.26318C0 3.36318 0.9 4.26318 2 4.26318ZM2 6.26318C0.9 6.26318 0 7.16318 0 8.26318C0 9.36318 0.9 10.2632 2 10.2632C3.1 10.2632 4 9.36318 4 8.26318C4 7.16318 3.1 6.26318 2 6.26318ZM0 14.2632C0 13.1632 0.9 12.2632 2 12.2632C3.1 12.2632 4 13.1632 4 14.2632C4 15.3632 3.1 16.2632 2 16.2632C0.9 16.2632 0 15.3632 0 14.2632Z" fill="white"/>
</svg>
