<svg width="16" height="16" viewBox="0 0 16 16" fill="none" xmlns="http://www.w3.org/2000/svg">
<g clip-path="url(#clip0_166_12560)">
<path d="M6 8C6 9.10667 6.89333 10 8 10C9.10667 10 10 9.10667 10 8C10 6.89333 9.10667 6 8 6C6.89333 6 6 6.89333 6 8Z" fill="white"/>
<path d="M5.33334 5.99992C5.33334 5.63325 5.03334 5.33325 4.66668 5.33325H3.39334C4.31334 3.73992 6.03334 2.66659 8.00001 2.66659C10.3267 2.66659 12.3 4.15992 13.0267 6.23992C13.12 6.49992 13.38 6.66658 13.6533 6.66658C14.1067 6.66658 14.44 6.21992 14.2933 5.79325C13.38 3.19325 10.9067 1.33325 8.00001 1.33325C5.82001 1.33325 3.88001 2.38659 2.66668 4.00659V3.33325C2.66668 2.96659 2.36668 2.66659 2.00001 2.66659C1.63334 2.66659 1.33334 2.96659 1.33334 3.33325V5.99992C1.33334 6.36658 1.63334 6.66658 2.00001 6.66658H4.66668C5.03334 6.66658 5.33334 6.36658 5.33334 5.99992Z" fill="white"/>
<path d="M10.6667 9.99992C10.6667 10.3666 10.9667 10.6666 11.3333 10.6666H12.6067C11.6867 12.2599 9.96665 13.3333 7.99998 13.3333C5.67332 13.3333 3.69998 11.8399 2.97332 9.75992C2.87998 9.49992 2.61998 9.33325 2.34665 9.33325C1.89332 9.33325 1.55998 9.77992 1.70665 10.2066C2.61998 12.8066 5.09332 14.6666 7.99998 14.6666C10.18 14.6666 12.12 13.6133 13.3333 11.9933V12.6666C13.3333 13.0333 13.6333 13.3333 14 13.3333C14.3667 13.3333 14.6667 13.0333 14.6667 12.6666V9.99992C14.6667 9.63325 14.3667 9.33325 14 9.33325H11.3333C10.9667 9.33325 10.6667 9.63325 10.6667 9.99992Z" fill="white"/>
</g>
<defs>
<clipPath id="clip0_166_12560">
<rect width="16" height="16" fill="white"/>
</clipPath>
</defs>
</svg>
