<svg width="24" height="10" viewBox="0 0 24 10" fill="none" xmlns="http://www.w3.org/2000/svg">
<path d="M4.51 9.47999L6.51 7.88999C6.99 7.50999 7.27 6.92999 7.27 6.31999V3.71999C10.29 2.73999 13.56 2.72999 16.59 3.71999V6.32999C16.59 6.93999 16.87 7.51999 17.35 7.89999L19.34 9.47999C20.14 10.11 21.28 10.05 22 9.32999L23.22 8.10999C24.02 7.30999 24.02 5.97999 23.17 5.22999C16.76 -0.430015 7.1 -0.430015 0.690004 5.22999C-0.159996 5.97999 -0.159996 7.30999 0.640004 8.10999L1.86 9.32999C2.57 10.05 3.71 10.11 4.51 9.47999Z" fill="white"/>
</svg>
