<svg width="12" height="12" viewBox="0 0 12 12" fill="none" xmlns="http://www.w3.org/2000/svg">
<path d="M0 4.66672V7.33339C0 7.70006 0.3 8.00006 0.666667 8.00006H2.66667L4.86 10.1934C5.28 10.6134 6 10.3134 6 9.72006V2.27339C6 1.68006 5.28 1.38006 4.86 1.80006L2.66667 4.00006H0.666667C0.3 4.00006 0 4.30006 0 4.66672ZM9 6.00006C9 4.82006 8.32 3.80672 7.33333 3.31339V8.68006C8.32 8.19339 9 7.18006 9 6.00006ZM7.33333 0.966723V1.10006C7.33333 1.35339 7.5 1.57339 7.73333 1.66672C9.45333 2.35339 10.6667 4.04006 10.6667 6.00006C10.6667 7.96006 9.45333 9.64672 7.73333 10.3334C7.49333 10.4267 7.33333 10.6467 7.33333 10.9001V11.0334C7.33333 11.4534 7.75333 11.7467 8.14 11.6001C10.4 10.7401 12 8.56006 12 6.00006C12 3.44006 10.4 1.26006 8.14 0.400057C7.75333 0.246723 7.33333 0.546723 7.33333 0.966723Z" fill="black"/>
</svg>
