<svg width="10" height="13" viewBox="0 0 10 13" fill="none" xmlns="http://www.w3.org/2000/svg">
<path opacity="0.6" fill-rule="evenodd" clip-rule="evenodd" d="M5 0.263184C2.79086 0.263184 1 2.05404 1 4.26318V5.53075C0.402199 5.87656 0 6.5229 0 7.26318V10.2632C0 11.3678 0.89543 12.2632 2 12.2632H8C9.10457 12.2632 10 11.3678 10 10.2632V7.26318C10 6.5229 9.5978 5.87656 9 5.53075V4.26318C9 2.05404 7.20914 0.263184 5 0.263184ZM7 5.26318V4.26318C7 3.15861 6.10457 2.26318 5 2.26318C3.89543 2.26318 3 3.15861 3 4.26318V5.26318H7Z" fill="white"/>
</svg>
