<svg width="10" height="13" viewBox="0 0 10 13" fill="none" xmlns="http://www.w3.org/2000/svg">
<path d="M5.00003 8.33325C6.1067 8.33325 7.00003 7.43992 7.00003 6.33325V2.33325C7.00003 1.22659 6.1067 0.333252 5.00003 0.333252C3.89337 0.333252 3.00003 1.22659 3.00003 2.33325V6.33325C3.00003 7.43992 3.89337 8.33325 5.00003 8.33325ZM8.94003 6.33325C8.61337 6.33325 8.34003 6.57325 8.2867 6.89992C8.01337 8.46659 6.6467 9.66659 5.00003 9.66659C3.35337 9.66659 1.9867 8.46659 1.71337 6.89992C1.66003 6.57325 1.3867 6.33325 1.06003 6.33325C0.653365 6.33325 0.333365 6.69325 0.393365 7.09325C0.720032 9.09325 2.32003 10.6599 4.33337 10.9466V12.3333C4.33337 12.6999 4.63337 12.9999 5.00003 12.9999C5.3667 12.9999 5.6667 12.6999 5.6667 12.3333V10.9466C7.68003 10.6599 9.28003 9.09325 9.6067 7.09325C9.67337 6.69325 9.3467 6.33325 8.94003 6.33325Z" fill="white"/>
</svg>
