<svg width="18" height="17" viewBox="0 0 18 17" fill="none" xmlns="http://www.w3.org/2000/svg">
<path d="M17 12.6352C17 14.0866 15.8724 15.2632 14.4815 15.2632C13.0905 15.2632 11.963 14.0866 11.963 12.6352C11.963 11.1838 13.0905 10.0072 14.4815 10.0072C15.8724 10.0072 17 11.1838 17 12.6352Z" fill="white"/>
<path d="M14.9259 6.76082V2.58691C14.9259 2.07161 14.6296 1.04102 13.4444 1.04102H2.48148C1.2963 1.04102 1 2.07161 1 2.58691V11.8623C1 12.3776 1.2963 13.4082 2.48148 13.4082H8.85185M17 12.6352C17 14.0866 15.8724 15.2632 14.4815 15.2632C13.0905 15.2632 11.963 14.0866 11.963 12.6352C11.963 11.1838 13.0905 10.0072 14.4815 10.0072C15.8724 10.0072 17 11.1838 17 12.6352Z" stroke="white" stroke-width="1.5" stroke-linecap="round"/>
</svg>
