<svg width="20" height="26" viewBox="0 0 20 26" fill="none" xmlns="http://www.w3.org/2000/svg">
<path d="M10 16.6666C12.2133 16.6666 14 14.88 14 12.6666V4.66663C14 2.45329 12.2133 0.666626 10 0.666626C7.78667 0.666626 6 2.45329 6 4.66663V12.6666C6 14.88 7.78667 16.6666 10 16.6666ZM17.88 12.6666C17.2267 12.6666 16.68 13.1466 16.5733 13.8C16.0267 16.9333 13.2933 19.3333 10 19.3333C6.70667 19.3333 3.97334 16.9333 3.42667 13.8C3.32 13.1466 2.77334 12.6666 2.12 12.6666C1.30667 12.6666 0.666669 13.3866 0.786669 14.1866C1.44 18.1866 4.64 21.32 8.66667 21.8933V24.6666C8.66667 25.4 9.26667 26 10 26C10.7333 26 11.3333 25.4 11.3333 24.6666V21.8933C15.36 21.32 18.56 18.1866 19.2133 14.1866C19.3467 13.3866 18.6933 12.6666 17.88 12.6666Z" fill="white"/>
</svg>
