<svg width="23" height="22" viewBox="0 0 23 22" fill="none" xmlns="http://www.w3.org/2000/svg">
<path d="M6.18749 17L6.18749 9C6.18749 6.79086 8.17982 5 10.6375 5L17.3125 5M6.18749 17C6.18749 19.2091 8.17982 21 10.6375 21H13.2442C14.4245 21 15.5563 20.5786 16.3909 19.8284L20.4591 16.1716C21.2937 15.4214 21.7625 14.404 21.7625 13.3431V9C21.7625 6.79086 19.7702 5 17.3125 5M6.18749 17C3.72982 17 1.73749 15.2091 1.73749 13L1.73749 5C1.73749 2.79086 3.72982 1 6.18749 1L12.8625 1C15.3202 1 17.3125 2.79086 17.3125 5M15.0875 21V19C15.0875 16.7909 17.0798 15 19.5375 15H21.7625" stroke="#797C7B" stroke-width="1.5" stroke-linejoin="round"/>
</svg>
