<svg width="17" height="16" viewBox="0 0 17 16" fill="none" xmlns="http://www.w3.org/2000/svg">
<path fill-rule="evenodd" clip-rule="evenodd" d="M2.93176 12.5647C3.16307 12.5647 3.35059 12.7522 3.35059 12.9835C3.35059 13.2148 3.16307 13.4024 2.93176 13.4024H2.09412C0.937568 13.4024 0 12.4648 0 11.3082V2.09412C0 0.937568 0.937568 0 2.09412 0H14.6588C15.8154 0 16.7529 0.937568 16.7529 2.09412V11.3082C16.7529 12.4648 15.8154 13.4024 14.6588 13.4024H13.8212C13.5899 13.4024 13.4024 13.2148 13.4024 12.9835C13.4024 12.7522 13.5899 12.5647 13.8212 12.5647H14.6588C15.3528 12.5647 15.9153 12.0022 15.9153 11.3082V2.09412C15.9153 1.40019 15.3528 0.837647 14.6588 0.837647H2.09412C1.40019 0.837647 0.837647 1.40019 0.837647 2.09412V11.3082C0.837647 12.0022 1.40019 12.5647 2.09412 12.5647H2.93176ZM12.4597 14.3816C12.6985 14.652 12.5065 15.0776 12.1457 15.0776H4.60691C4.24618 15.0776 4.0542 14.652 4.29297 14.3816L8.06238 10.1129C8.2291 9.92406 8.52355 9.92406 8.69027 10.1129L12.4597 14.3816ZM8.37639 11.0228L5.53555 14.24H11.2172L8.37639 11.0228Z" fill="white"/>
</svg>
