<svg width="23" height="23" viewBox="0 0 23 23" fill="none" xmlns="http://www.w3.org/2000/svg">
<g clip-path="url(#clip0_137_7264)">
<path d="M5.00535 15.3235C6.93462 15.3235 8.49861 13.7595 8.49861 11.8302C8.49861 9.90092 6.93462 8.33693 5.00535 8.33693C3.07607 8.33693 1.51208 9.90092 1.51208 11.8302C1.51208 13.7595 3.07607 15.3235 5.00535 15.3235Z" stroke="white" stroke-linecap="round" stroke-linejoin="round"/>
<path d="M18.2021 21.9218C20.1314 21.9218 21.6954 20.3578 21.6954 18.4286C21.6954 16.4993 20.1314 14.9353 18.2021 14.9353C16.2728 14.9353 14.7089 16.4993 14.7089 18.4286C14.7089 20.3578 16.2728 21.9218 18.2021 21.9218Z" stroke="white" stroke-linecap="round" stroke-linejoin="round"/>
<path d="M18.2021 8.72506C20.1314 8.72506 21.6954 7.16108 21.6954 5.2318C21.6954 3.30253 20.1314 1.73854 18.2021 1.73854C16.2728 1.73854 14.7089 3.30253 14.7089 5.2318C14.7089 7.16108 16.2728 8.72506 18.2021 8.72506Z" stroke="white" stroke-linecap="round" stroke-linejoin="round"/>
<path d="M8.12598 10.2776L15.0814 6.78436" stroke="white" stroke-linecap="round" stroke-linejoin="round"/>
<path d="M8.12598 13.3828L15.0814 16.876" stroke="white" stroke-linecap="round" stroke-linejoin="round"/>
</g>
<defs>
<clipPath id="clip0_137_7264">
<rect width="21.7358" height="21.7358" fill="white" transform="translate(0.73584 0.962265)"/>
</clipPath>
</defs>
</svg>
