<svg width="22" height="22" viewBox="0 0 22 22" fill="none" xmlns="http://www.w3.org/2000/svg">
<g clip-path="url(#clip0_137_7275)">
<path d="M7.80059 10.1483C9.94423 10.1483 11.682 8.41049 11.682 6.26685C11.682 4.12322 9.94423 2.38545 7.80059 2.38545C5.65695 2.38545 3.91919 4.12322 3.91919 6.26685C3.91919 8.41049 5.65695 10.1483 7.80059 10.1483Z" stroke="white" stroke-linecap="round" stroke-linejoin="round"/>
<path d="M0.814087 21.0162H7.80061H14.7871V20.1745C14.7748 18.991 14.4627 17.8302 13.88 16.8C13.2973 15.7701 12.4631 14.9045 11.4552 14.2842C10.4473 13.664 9.29869 13.3093 8.11659 13.2534C8.0112 13.2484 7.90584 13.2458 7.80061 13.2455C7.69538 13.2458 7.59002 13.2484 7.48463 13.2534C6.30253 13.3093 5.15388 13.664 4.14599 14.2842C3.13811 14.9045 2.30388 15.7701 1.7212 16.8C1.13854 17.8302 0.826447 18.991 0.814087 20.1745V21.0162Z" stroke="white" stroke-linecap="round" stroke-linejoin="round"/>
<path d="M14.0109 10.1483C16.1545 10.1483 17.8923 8.41049 17.8923 6.26685C17.8923 4.12322 16.1545 2.38545 14.0109 2.38545" stroke="white" stroke-linecap="round" stroke-linejoin="round"/>
<path d="M17.8923 21.0162H20.9974V20.1745C20.985 18.991 20.673 17.8302 20.0903 16.8001C19.5076 15.7701 18.6734 14.9045 17.6655 14.2842C17.014 13.8833 16.3036 13.5933 15.5635 13.4233" stroke="white" stroke-linecap="round" stroke-linejoin="round"/>
</g>
<defs>
<clipPath id="clip0_137_7275">
<rect width="21.7358" height="21.7358" fill="white" transform="translate(0.0378418 0.0566101)"/>
</clipPath>
</defs>
</svg>
