<svg width="18" height="17" viewBox="0 0 18 17" fill="none" xmlns="http://www.w3.org/2000/svg">
<path d="M5.62129 15.8332C2.66506 14.6495 0.827013 11.975 0.539728 9.2984C2.40039 12.099 5.4703 12.6598 7.74103 12.2196L7.74246 12.2193C10.6052 11.6556 12.9261 9.14426 13.0663 6.54231C13.2381 3.83068 11.9474 1.76032 10.035 0.568723C10.4351 0.625833 10.869 0.718714 11.3185 0.848046C12.7392 1.25685 14.2501 2.01071 15.299 3.06516L15.3001 3.06631C17.8797 5.6428 18.2724 10.0165 16.043 13.0498L16.042 13.0512C13.7655 16.1713 9.42586 17.37 5.62269 15.8338L5.62129 15.8332Z" stroke="white"/>
</svg>
