<?xml version="1.0" encoding="UTF-8"?>
<svg id="Layer_1" data-name="Layer 1" xmlns="http://www.w3.org/2000/svg" viewBox="0 0 26 26">
  <defs>
    <style>
      .cls-1 {
        fill: #7b7b7b;
        stroke-width: 0px;
      }
    </style>
  </defs>
  <path class="cls-1" d="m10.97,12.95c.07.13.11.22.16.3.69,1.18,1.38,2.37,2.06,3.55.25.43.2.88-.16,1.13-.15.1-.35.18-.53.18-1.4.01-2.81,0-4.21,0-.38,0-.62-.19-.81-.51-1.16-2.01-2.33-4.01-3.49-6.01-.06-.1-.14-.19-.23-.26-1.47-.99-2.12-2.72-1.62-4.38.49-1.64,1.99-2.75,3.74-2.76.88,0,1.75,0,2.63,0,.16,0,.33-.04.47-.1,2.9-1.28,5.79-2.57,8.69-3.86.76-.34,1.31.02,1.31.85,0,4.67,0,9.34,0,14.01,0,.55-.24.9-.7.95-.19.02-.4-.03-.58-.11-2.13-.94-4.26-1.89-6.39-2.84-.1-.04-.19-.08-.34-.14Zm6.36-10.75c-.07.02-.12.04-.17.06-2.41,1.07-4.83,2.15-7.24,3.22-.14.06-.18.14-.18.29,0,1.54,0,3.07,0,4.61,0,.17.06.25.21.32,2.38,1.05,4.76,2.12,7.14,3.17.07.03.15.05.23.08V2.2Zm-9.25,8.06v-4.39c-.85,0-1.68-.05-2.5.01-1.08.08-1.9,1.02-1.95,2.12-.05,1.06.73,2.12,1.78,2.24.88.1,1.78.02,2.68.02Zm2.98,6.21c-.02-.06-.02-.09-.03-.11-.82-1.42-1.65-2.84-2.48-4.26-.05-.08-.19-.13-.28-.13-.57-.01-1.13,0-1.7,0-.14,0-.28,0-.46,0,.87,1.51,1.72,2.96,2.56,4.4.03.06.13.1.2.1.72,0,1.44,0,2.19,0Z"/>
  <path class="cls-1" d="m2.45,21.96c-.53,0-1.03,0-1.52,0-.65,0-.92-.3-.92-1,0-2.68,0-5.36,0-8.03,0-.66.53-1.09,1.05-.84.34.16.47.47.47.86,0,2.33,0,4.66,0,6.99,0,.11,0,.22,0,.37.22,0,.43,0,.63,0,.32,0,.64,0,.96,0,.55,0,.85.33.85.92,0,.75,0,1.49,0,2.29.09-.07.16-.1.21-.15,1.11-.92,2.22-1.83,3.32-2.76.25-.21.51-.3.82-.3,5.26,0,10.53,0,15.79,0,.11,0,.22,0,.36,0,0-.49,0-.96,0-1.43.01-.65.63-1.03,1.14-.71.25.15.38.39.38.7,0,.76,0,1.52,0,2.28,0,.47-.32.8-.76.82-.09,0-.19,0-.28,0-5.43,0-10.86,0-16.3,0-.16,0-.35.07-.48.17-1.47,1.2-2.93,2.42-4.39,3.64-.28.24-.58.35-.92.17-.34-.18-.43-.51-.43-.89,0-.92,0-1.85,0-2.77,0-.1,0-.2,0-.32Z"/>
  <path class="cls-1" d="m1.64,2.03c0,.6,0,1.15,0,1.71,0,.55-.35.93-.83.92C.34,4.65,0,4.28,0,3.75c0-.82,0-1.64,0-2.47C0,.71.33.38.9.38c2.16,0,4.32,0,6.48,0,.54,0,.9.33.9.81,0,.48-.36.83-.89.83-1.8,0-3.59,0-5.39,0-.11,0-.22,0-.36,0Z"/>
  <path class="cls-1" d="m22.22,5.34c-.44,0-.7-.15-.85-.46-.15-.31-.13-.63.1-.87.62-.65,1.26-1.29,1.91-1.91.31-.29.8-.24,1.09.05.29.29.34.79.05,1.09-.62.66-1.26,1.29-1.91,1.92-.12.12-.32.15-.4.19Z"/>
  <path class="cls-1" d="m23.87,9.33c-.41,0-.82,0-1.23,0-.5,0-.86-.36-.85-.84,0-.46.37-.8.86-.81.82,0,1.64,0,2.46,0,.49,0,.85.34.85.81,0,.48-.35.83-.85.83-.41,0-.82,0-1.23,0Z"/>
  <path class="cls-1" d="m23.77,15.05c-.1-.05-.32-.12-.46-.26-.61-.58-1.2-1.18-1.78-1.78-.33-.34-.32-.84,0-1.16.31-.32.82-.33,1.16,0,.61.59,1.2,1.19,1.8,1.8.25.26.31.58.17.91-.14.33-.4.48-.87.49Z"/>
</svg>