<svg width="30" height="19" viewBox="0 0 30 19" fill="none" xmlns="http://www.w3.org/2000/svg">
<g clip-path="url(#clip0_137_7568)">
<path d="M16.5086 16.5186L1.50428 11.2857C1.25946 11.2003 1.04619 11.0428 0.892458 10.834C0.738725 10.6252 0.651717 10.3748 0.642853 10.1157V8.71427C0.643912 8.44849 0.727311 8.18957 0.881576 7.97314C1.03584 7.75671 1.25339 7.59341 1.50428 7.5057L16.5086 2.2857C16.6049 2.25316 16.7076 2.24394 16.8082 2.25878C16.9087 2.27363 17.0044 2.31212 17.0872 2.3711C17.17 2.43008 17.2377 2.50786 17.2846 2.59807C17.3315 2.68827 17.3564 2.78831 17.3571 2.88999V15.9143C17.3564 16.0159 17.3315 16.116 17.2846 16.2062C17.2377 16.2964 17.17 16.3742 17.0872 16.4332C17.0044 16.4921 16.9087 16.5306 16.8082 16.5455C16.7076 16.5603 16.6049 16.5511 16.5086 16.5186Z" stroke="#797C7B" stroke-linecap="round" stroke-linejoin="round"/>
<path d="M10.9029 14.59C10.7946 15.4831 10.35 16.3013 9.65957 16.8781C8.96914 17.4548 8.08482 17.7467 7.18672 17.6943C6.28862 17.6418 5.44428 17.249 4.82567 16.5958C4.20706 15.9426 3.86071 15.0782 3.85715 14.1786V12.1343" stroke="#797C7B" stroke-linecap="round" stroke-linejoin="round"/>
</g>
<line x1="20.2942" y1="5.72683" x2="28.0085" y2="0.58397" stroke="#797C7B"/>
<line y1="-0.5" x2="9.27142" y2="-0.5" transform="matrix(0.83205 0.5547 0.5547 -0.83205 20.5716 12.5714)" stroke="#797C7B"/>
<line x1="20.5716" y1="9.5" x2="29.5716" y2="9.5" stroke="#797C7B"/>
<defs>
<clipPath id="clip0_137_7568">
<rect width="18" height="18" fill="white" transform="translate(0 1)"/>
</clipPath>
</defs>
</svg>
