<svg width="17" height="18" viewBox="0 0 17 18" fill="none" xmlns="http://www.w3.org/2000/svg">
<path d="M12.7324 8.77534C12.7324 11.0583 10.9475 12.9063 8.70975 12.9335C6.47199 12.9335 4.60719 11.0583 4.63383 8.77534C4.63383 6.49241 6.47199 4.64433 8.68311 4.64433C10.8942 4.64433 12.7324 6.49241 12.7324 8.77534Z" fill="white"/>
<path d="M1.78333 8.28614C2.07637 8.28614 2.34277 8.31332 2.63581 8.28614C3.11533 8.23178 3.19525 8.44921 3.16861 8.85687C3.16861 9.21018 3.08869 9.31889 2.71573 9.31889C2.04973 9.29171 1.41037 9.29171 0.744366 9.31889C0.291486 9.31889 0.371406 9.04711 0.371406 8.80251C0.371406 8.53074 0.318126 8.23178 0.744366 8.28614C1.09069 8.31332 1.41037 8.28614 1.75669 8.28614H1.78333Z" fill="white"/>
<path d="M8.20364 1.7635C8.20364 1.46455 8.23028 1.16559 8.20364 0.893817C8.15036 0.404619 8.3102 0.241553 8.78972 0.295908C9.1094 0.295908 9.2426 0.377442 9.21596 0.730751C9.18932 1.41019 9.18932 2.11681 9.21596 2.79625C9.21596 3.28545 8.92292 3.12238 8.68316 3.14956C8.4434 3.14956 8.177 3.25827 8.20364 2.79625C8.23028 2.44294 8.20364 2.11681 8.20364 1.7635Z" fill="white"/>
<path d="M9.18929 15.9231C9.18929 16.1677 9.16265 16.4394 9.18929 16.684C9.26921 17.2276 9.00281 17.3091 8.57657 17.2819C8.25689 17.2819 8.20361 17.1461 8.20361 16.8743C8.20361 16.1948 8.23025 15.4882 8.20361 14.8088C8.20361 14.3196 8.47001 14.4555 8.70977 14.4555C8.97617 14.4555 9.24257 14.4011 9.18929 14.836C9.13601 15.1893 9.18929 15.5698 9.18929 15.9231Z" fill="white"/>
<path d="M4.44735 5.16071C4.44735 5.16071 4.26087 4.99764 4.20759 4.94329C3.70143 4.42691 3.22191 3.91054 2.68911 3.42134C2.34279 3.09521 2.68911 2.95932 2.84895 2.79625C3.00879 2.60601 3.14199 2.36141 3.40839 2.68754C3.86127 3.20392 4.39407 3.69312 4.87359 4.18232C4.95351 4.26385 5.16663 4.34538 5.03343 4.53562C4.87359 4.75305 4.66047 4.94329 4.44735 5.16071Z" fill="white"/>
<path d="M3.11538 15.1893C2.9289 14.9718 2.74242 14.7544 2.58258 14.5098C2.44938 14.3196 2.6625 14.2652 2.74242 14.1565C3.22194 13.6401 3.7281 13.1781 4.20762 12.6617C4.50066 12.3356 4.63386 12.5802 4.7937 12.7705C4.95354 12.9335 5.29986 13.0694 4.9269 13.3955C4.3941 13.8847 3.91458 14.4011 3.40842 14.9175C3.35514 14.9718 3.27522 15.0262 3.14202 15.1893H3.11538Z" fill="white"/>
<path d="M15.6363 9.29171C15.3432 9.29171 15.0235 9.29171 14.7305 9.29171C14.5707 9.29171 14.3043 9.40042 14.251 9.183C14.1977 8.9384 14.2243 8.63945 14.251 8.36767C14.251 8.25896 14.4108 8.28614 14.5174 8.28614C15.2367 8.28614 15.9293 8.28614 16.6486 8.28614C17.1281 8.28614 16.9683 8.61227 16.9949 8.82969C16.9949 9.10147 17.0482 9.34607 16.6486 9.31889C16.3023 9.29171 15.9826 9.31889 15.6363 9.31889V9.29171Z" fill="white"/>
<path d="M14.9167 3.12239C14.9167 3.12239 14.7835 3.28545 14.7302 3.36699C14.224 3.88336 13.6912 4.39974 13.1851 4.94329C12.892 5.26942 12.7588 4.94329 12.6256 4.8074C12.4924 4.64434 12.1461 4.53563 12.4924 4.23667C12.9986 3.77465 13.4515 3.25828 13.931 2.79626C14.0375 2.68754 14.1175 2.44295 14.3039 2.55166C14.5437 2.68754 14.7302 2.93214 14.9433 3.14957L14.9167 3.12239Z" fill="white"/>
<path d="M12.9988 12.4715C12.9988 12.4715 13.132 12.6074 13.1853 12.6617C13.6914 13.1781 14.171 13.6945 14.7038 14.1837C15.0767 14.537 14.7038 14.6185 14.5439 14.8088C14.3841 14.999 14.2509 15.2164 13.9845 14.8903C13.5316 14.3739 12.9988 13.8847 12.5193 13.3955C12.4394 13.314 12.2262 13.2325 12.3594 13.0422C12.5459 12.8248 12.7058 12.5802 12.9988 12.4715Z" fill="white"/>
</svg>
