<svg width="30" height="30" viewBox="0 0 30 30" fill="none" xmlns="http://www.w3.org/2000/svg">
<path d="M21.1073 0.0217323H22.8133C22.8786 0.101418 22.973 0.0724411 23.0601 0.0796852C24.0111 0.181103 24.9475 0.347717 25.8259 0.738899C26.9148 1.21701 27.9166 1.80378 28.5627 2.86142C29.4991 4.38269 29.2668 5.88222 28.3449 7.23686C27.8585 7.95403 27.2923 8.62049 26.7478 9.30143C26.0292 10.1925 25.9783 11.0038 26.5736 11.9745C27.3068 13.1625 28.04 14.3506 28.5699 15.6545C29.0635 16.8715 29.5064 18.103 29.7677 19.3852C29.8621 19.8271 29.9274 20.2835 30 20.7254V23.1956C29.8548 23.7172 29.8113 24.2605 29.6516 24.7893C29.2813 26.0498 28.7369 27.2089 27.7206 28.0782C26.2977 29.2952 24.5773 29.4328 23.0165 28.4259C22.2906 27.9623 21.6082 27.419 20.9694 26.8467C20.0112 25.9991 18.9949 25.8397 18.0802 26.4845C17.5067 26.8901 16.9114 27.2378 16.3017 27.5711C14.0948 28.7736 11.7646 29.6356 9.25286 29.9254C7.11861 30.1717 5.10052 29.8167 3.23488 28.7301C2.44361 28.2665 1.74672 27.687 1.34019 26.8177C0.657818 25.3834 0.766708 24.0287 1.6959 22.7537C2.24761 21.9931 2.85013 21.2687 3.42362 20.5226C4.01888 19.7547 4.0697 18.8999 3.57607 18.1175C3.32925 17.7336 3.07517 17.3496 2.85013 16.9512C2.29117 15.9733 1.74672 14.9953 1.34019 13.9377C0.723152 12.3367 0.229518 10.7068 0.0552938 8.98994C-0.126189 7.16442 0.135147 5.41859 0.897376 3.75245C1.37649 2.70205 2.0879 1.86898 3.11873 1.32567C4.57785 0.56504 6.15313 0.746143 7.44528 1.78929C8.1204 2.33985 8.8173 2.86867 9.51419 3.39024C10.2546 3.94804 11.0459 4.00599 11.8517 3.54237C12.3744 3.24536 12.8898 2.94835 13.4052 2.6441C15.4886 1.39087 17.6954 0.499843 20.1201 0.15937C20.454 0.115906 20.8024 0.144882 21.1218 0L21.1073 0.0217323ZM28.0763 4.93324C28.069 3.62205 27.1834 2.47024 25.884 2.07906C25.158 1.86174 24.4684 1.94142 23.8223 2.35434C23.2125 2.74552 22.6463 3.2019 22.0728 3.65103C21.1654 4.35371 20.287 5.08536 19.4014 5.82426C18.8424 6.28789 18.2762 6.75151 17.6374 7.09198C16.5848 7.64978 15.4523 7.77293 14.2836 7.63529C12.9696 7.48316 11.859 6.86741 10.8717 6.0271C9.51419 4.87528 8.09862 3.78142 6.69757 2.67308C6.32735 2.38331 5.93535 2.11528 5.45623 2.02111C4.19311 1.76032 2.77754 2.52095 2.22583 3.75245C1.97176 4.32473 1.90642 4.91151 2.05887 5.52725C2.21857 6.17198 2.63235 6.65733 3.02436 7.15718C4.02614 8.4249 5.04245 9.67813 6.08053 10.9169C6.88632 11.8731 7.4598 12.9235 7.63403 14.184C7.78647 15.2706 7.63403 16.3065 7.24928 17.3207C6.94439 18.1248 6.33461 18.7333 5.8192 19.3925C4.81741 20.6747 3.77207 21.9207 2.7485 23.1811C1.80479 24.333 1.72494 25.55 2.50894 26.6873C3.2494 27.7594 4.44719 28.2375 5.60142 27.9043C6.02246 27.7812 6.37816 27.5349 6.71935 27.2668C8.14218 26.173 9.54323 25.0501 10.9152 23.8983C11.9025 23.0725 13.0059 22.5074 14.2908 22.3553C15.6411 22.1959 16.9114 22.4278 18.0802 23.1377C18.6609 23.4926 19.1473 23.9635 19.67 24.3909C20.8896 25.3906 22.1309 26.3686 23.365 27.3538C23.6626 27.5928 23.982 27.8029 24.3595 27.9115C25.4847 28.2303 26.6898 27.7884 27.4665 26.7525C28.2215 25.7528 28.2432 24.5575 27.5028 23.5361C27.2705 23.2101 27.0309 22.8841 26.7769 22.5726C25.7606 21.3194 24.737 20.0662 23.7207 18.8129C23.0165 17.9364 22.5011 16.9729 22.385 15.8284C22.2761 14.7925 22.3269 13.7783 22.7189 12.8003C23.0311 12.0252 23.5392 11.3733 24.0691 10.743C25.1363 9.46081 26.1816 8.17135 27.2197 6.86741C27.6698 6.30237 28.069 5.70836 28.0472 4.94048L28.0763 4.93324Z" fill="#FEC747"/>
</svg>
