<svg width="18" height="18" viewBox="0 0 18 18" fill="none" xmlns="http://www.w3.org/2000/svg">
<path d="M11 5H13V7C13 7.55 13.45 8 14 8C14.55 8 15 7.55 15 7V5H17C17.55 5 18 4.55 18 4C18 3.45 17.55 3 17 3H15V1C15 0.45 14.55 0 14 0C13.45 0 13 0.45 13 1V3H11C10.45 3 9.99997 3.45 9.99997 4C9.99997 4.55 10.45 5 11 5ZM16.21 12.27L13.67 11.98C13.06 11.91 12.46 12.12 12.03 12.55L10.19 14.39C7.35997 12.95 5.03997 10.64 3.59997 7.8L5.44997 5.95C5.87997 5.52 6.08997 4.91 6.01997 4.31L5.72997 1.79C5.61997 0.78 4.75997 0.00999999 3.74997 0.00999999H2.01997C0.88997 0.00999999 -0.0500301 0.95 0.0199699 2.08C0.54997 10.62 7.37997 17.44 15.91 17.97C17.04 18.04 17.98 17.1 17.98 15.97V14.24C17.99 13.24 17.22 12.38 16.21 12.27Z" fill="white"/>
</svg>
